<svg xmlns="http://www.w3.org/2000/svg" class="panel" xmlns:xlink="http://www.w3.org/1999/xlink" viewBox="0 0 572.07 727.35"><defs><style>.cls-1{fill:#282828;stroke:#0f5696;}.cls-1,.cls-2,.cls-21,.cls-32{stroke-miterlimit:10;}.cls-2{fill:#2a2e36;stroke:#2a2e36;}.cls-3{fill:#505966;}.cls-4{fill:#6c7683;}.cls-5{fill:url(#radial-gradient);}.cls-6{fill:url(#linear-gradient);}.cls-7{fill:url(#linear-gradient-2);}.cls-8{fill:url(#linear-gradient-3);}.cls-19,.cls-33,.cls-9{font-size:17.95px;}.cls-22,.cls-27,.cls-9{fill:#ccc;}.cls-19,.cls-22,.cls-27,.cls-31,.cls-33,.cls-9{font-family:MyriadPro-Regular, Myriad Pro;}.cls-10{letter-spacing:-0.01em;}.cls-11{letter-spacing:0em;}.cls-12{letter-spacing:0em;}.cls-13{fill:url(#linear-gradient-4);}.cls-14{fill:url(#linear-gradient-5);}.cls-15{opacity:0.83;}.cls-16{fill:url(#linear-gradient-6);}.cls-17{opacity:0.33;}.cls-18{fill:url(#linear-gradient-7);}.cls-19,.cls-33{fill:#898989;}.cls-19{letter-spacing:-0.01em;}.cls-20{letter-spacing:0.02em;}.cls-21,.cls-32{fill:none;}.cls-21{stroke:#777;}.cls-22,.cls-27{font-size:38.03px;}.cls-23{fill:url(#linear-gradient-8);}.cls-24{fill:url(#linear-gradient-9);}.cls-25{fill:url(#linear-gradient-10);}.cls-26{fill:url(#linear-gradient-11);}.cls-27{letter-spacing:0.02em;}.cls-28{fill:url(#linear-gradient-12);}.cls-29{fill:url(#linear-gradient-13);}.cls-30{fill:url(#linear-gradient-14);}.cls-31{font-size:70.69px;fill:#d1d1d1;}.cls-32{stroke:#878787;stroke-width:0.75px;}.cls-34{letter-spacing:-0.01em;}</style><radialGradient id="radial-gradient" cx="472.47" cy="585.69" r="53.19" gradientUnits="userSpaceOnUse"><stop offset="0" stop-color="#666"/><stop offset="0.03" stop-color="#686868"/><stop offset="0.03" stop-color="#6f6f6f"/><stop offset="0.04" stop-color="#7a7a7a"/><stop offset="0.05" stop-color="#8b8b8b"/><stop offset="0.05" stop-color="#a1a1a1"/><stop offset="0.05" stop-color="#b3b3b3"/><stop offset="0.07" stop-color="#a8a8a8"/><stop offset="0.1" stop-color="#8b8b8b"/><stop offset="0.12" stop-color="#666"/><stop offset="0.19" stop-color="#5c5c5c"/><stop offset="0.28" stop-color="#464646"/><stop offset="0.29" stop-color="#444e52"/><stop offset="0.3" stop-color="#3e6373"/><stop offset="0.32" stop-color="#3485a7"/><stop offset="0.34" stop-color="#29abe2"/><stop offset="0.35" stop-color="#2496c6"/><stop offset="0.37" stop-color="#175f7e"/><stop offset="0.4" stop-color="#02090c"/><stop offset="0.4"/><stop offset="0.46" stop-color="#002e4d"/><stop offset="0.52" stop-color="#005a97"/><stop offset="0.68" stop-color="#005287"/><stop offset="0.77" stop-color="#004c7b"/><stop offset="0.8" stop-color="#024c7a"/><stop offset="0.81" stop-color="#094c76"/><stop offset="0.82" stop-color="#144c6f"/><stop offset="0.83" stop-color="#254c65"/><stop offset="0.83" stop-color="#3b4d58"/><stop offset="0.84" stop-color="#4d4d4d"/><stop offset="0.84" stop-color="#464646"/><stop offset="0.84" stop-color="#2d2d2d"/><stop offset="0.85" stop-color="#191919"/><stop offset="0.86" stop-color="#0b0b0b"/><stop offset="0.87" stop-color="#020202"/><stop offset="0.89"/><stop offset="1"/></radialGradient><linearGradient id="linear-gradient" x1="422.23" y1="529.85" x2="461.11" y2="597.18" gradientUnits="userSpaceOnUse"><stop offset="0" stop-color="#0ccacb"/><stop offset="0.16" stop-color="#0fb8ba" stop-opacity="0.78"/><stop offset="0.37" stop-color="#12a2a5" stop-opacity="0.5"/><stop offset="0.57" stop-color="#159195" stop-opacity="0.29"/><stop offset="0.75" stop-color="#168489" stop-opacity="0.13"/><stop offset="0.9" stop-color="#187d82" stop-opacity="0.03"/><stop offset="1" stop-color="#187a7f" stop-opacity="0"/></linearGradient><linearGradient id="linear-gradient-2" x1="360.86" y1="-265.16" x2="399.32" y2="-198.56" gradientTransform="matrix(-1.01, -0.01, 0.01, -0.99, 890.61, 384.94)" gradientUnits="userSpaceOnUse"><stop offset="0" stop-color="#0c95cb"/><stop offset="0.31" stop-color="#108cb0" stop-opacity="0.65"/><stop offset="0.64" stop-color="#148296" stop-opacity="0.3"/><stop offset="0.88" stop-color="#177c85" stop-opacity="0.08"/><stop offset="1" stop-color="#187a7f" stop-opacity="0"/></linearGradient><linearGradient id="linear-gradient-3" x1="1106.33" y1="410.4" x2="1111.6" y2="410.4" gradientTransform="matrix(0, 0.75, -0.8, 0, 798.24, -252.34)" gradientUnits="userSpaceOnUse"><stop offset="0.01" stop-color="#fff"/><stop offset="0.08" stop-color="#fff" stop-opacity="0.89"/><stop offset="0.28" stop-color="#fff" stop-opacity="0.62"/><stop offset="0.46" stop-color="#fff" stop-opacity="0.4"/><stop offset="0.63" stop-color="#fff" stop-opacity="0.23"/><stop offset="0.78" stop-color="#fff" stop-opacity="0.1"/><stop offset="0.91" stop-color="#fff" stop-opacity="0.03"/><stop offset="1" stop-color="#fff" stop-opacity="0"/></linearGradient><linearGradient id="linear-gradient-4" x1="95.21" y1="359.34" x2="134.82" y2="359.34" gradientUnits="userSpaceOnUse"><stop offset="0" stop-color="#ccc"/><stop offset="0.16" stop-color="#cecece"/><stop offset="0.21" stop-color="#d5d5d5"/><stop offset="0.25" stop-color="#e0e0e0"/><stop offset="0.28" stop-color="#f1f1f1"/><stop offset="0.28" stop-color="#f2f2f2"/><stop offset="0.67" stop-color="#ccc"/></linearGradient><linearGradient id="linear-gradient-5" x1="174.44" y1="359.34" x2="214.05" y2="359.34" xlink:href="#linear-gradient-4"/><linearGradient id="linear-gradient-6" x1="71.44" y1="153.98" x2="237.82" y2="153.98" gradientTransform="translate(0 107.16) scale(1 0.7)" gradientUnits="userSpaceOnUse"><stop offset="0" stop-color="#333"/><stop offset="0.04" stop-color="#353535"/><stop offset="0.05" stop-color="#3c3c3c"/><stop offset="0.06" stop-color="#474747"/><stop offset="0.07" stop-color="#585858"/><stop offset="0.07" stop-color="#666"/><stop offset="0.09" stop-color="#707070"/><stop offset="0.12" stop-color="#8b8b8b"/><stop offset="0.15" stop-color="#b3b3b3"/><stop offset="0.18" stop-color="#a8a8a8"/><stop offset="0.21" stop-color="#8b8b8b"/><stop offset="0.26" stop-color="#5b5b5b"/><stop offset="0.28" stop-color="#464646"/><stop offset="0.34" stop-color="#4d4d4d"/><stop offset="0.41" stop-color="#4d4d4d"/><stop offset="0.52" stop-color="#3e3e3e"/><stop offset="0.6" stop-color="#2e2e2e"/><stop offset="0.75" stop-color="#030303"/><stop offset="0.77"/><stop offset="0.8" stop-color="#020202"/><stop offset="0.81" stop-color="#090909"/><stop offset="0.82" stop-color="#141414"/><stop offset="0.83" stop-color="#252525"/><stop offset="0.83" stop-color="#3b3b3b"/><stop offset="0.84" stop-color="#4d4d4d"/><stop offset="0.84" stop-color="#4d4d4d"/><stop offset="0.9" stop-color="#4d4d4d"/><stop offset="1"/></linearGradient><linearGradient id="linear-gradient-7" x1="91.82" y1="214.47" x2="219.71" y2="214.47" gradientUnits="userSpaceOnUse"><stop offset="0.01" stop-color="#e0ff00"/><stop offset="0.1" stop-color="#d8fe00"/><stop offset="0.24" stop-color="#c4fb00"/><stop offset="0.41" stop-color="#a2f700"/><stop offset="0.61" stop-color="#72f100"/><stop offset="0.82" stop-color="#37e900"/><stop offset="1" stop-color="#00e200"/></linearGradient><linearGradient id="linear-gradient-8" x1="408.23" y1="359.34" x2="447.84" y2="359.34" xlink:href="#linear-gradient-4"/><linearGradient id="linear-gradient-9" x1="487.46" y1="359.34" x2="527.07" y2="359.34" xlink:href="#linear-gradient-4"/><linearGradient id="linear-gradient-10" x1="384.46" y1="153.98" x2="550.84" y2="153.98" xlink:href="#linear-gradient-6"/><linearGradient id="linear-gradient-11" x1="404.84" y1="214.47" x2="532.73" y2="214.47" xlink:href="#linear-gradient-7"/><linearGradient id="linear-gradient-12" x1="153.28" y1="685.29" x2="153.28" y2="486.1" gradientUnits="userSpaceOnUse"><stop offset="0" stop-color="#4d4d4d"/><stop offset="0.44" stop-color="#2a2a2a"/><stop offset="1"/></linearGradient><linearGradient id="linear-gradient-13" x1="101.99" y1="534.45" x2="140.87" y2="601.78" gradientUnits="userSpaceOnUse"><stop offset="0" stop-color="red"/><stop offset="0.09" stop-color="#f60505" stop-opacity="0.96"/><stop offset="0.23" stop-color="#dd1213" stop-opacity="0.85"/><stop offset="0.42" stop-color="#b52729" stop-opacity="0.68"/><stop offset="0.64" stop-color="#7d4447" stop-opacity="0.44"/><stop offset="0.89" stop-color="#37696e" stop-opacity="0.14"/><stop offset="1" stop-color="#187a7f" stop-opacity="0"/></linearGradient><linearGradient id="linear-gradient-14" x1="678.06" y1="-193.39" x2="716.51" y2="-126.79" gradientTransform="matrix(-1.01, -0.01, 0.01, -0.99, 890.61, 384.94)" gradientUnits="userSpaceOnUse"><stop offset="0.21" stop-color="#0c95cb"/><stop offset="0.3" stop-color="#0c94c9" stop-opacity="0.97"/><stop offset="0.41" stop-color="#0d92c2" stop-opacity="0.88"/><stop offset="0.54" stop-color="#0f8eb7" stop-opacity="0.73"/><stop offset="0.69" stop-color="#1288a7" stop-opacity="0.53"/><stop offset="0.85" stop-color="#158194" stop-opacity="0.28"/><stop offset="1" stop-color="#187a7f" stop-opacity="0"/></linearGradient></defs><title>display-panel</title><g id="Layer_2" data-name="Layer 2"><g id="display"><g id="camera-group"><g id="camera-log"><circle cx="472.47" cy="585.69" r="99.6"/><circle class="cls-1" cx="472.47" cy="585.69" r="90.54"/><circle cx="472.47" cy="585.69" r="86.02"/><circle class="cls-2" cx="472.47" cy="585.69" r="79.22"/><circle class="cls-3" cx="472.47" cy="585.69" r="59.98"/><circle class="cls-4" cx="472.47" cy="585.69" r="57.72"/><circle class="cls-5" cx="472.47" cy="585.69" r="53.19"/><path class="cls-6" d="M470.2,506.5V588H394.33S395.55,517.85,470.2,506.5Z"/><path class="cls-7" d="M474.73,665.74l1.09-80,75.73,1S549.39,655.6,474.73,665.74Z"/><ellipse class="cls-8" cx="470.88" cy="583.57" rx="2.1" ry="1.99" transform="translate(-131.4 136.87) rotate(-14.54)"/></g><text id="camera-text" class="cls-9" transform="translate(443.43 722.86)"><tspan class="cls-10">C</tspan><tspan class="cls-11" x="10.29" y="0">ame</tspan><tspan class="cls-12" x="42.9" y="0">r</tspan><tspan x="48.69" y="0">a</tspan></text></g><g id="battery-group-1"><g id="battery-body-1"><rect class="cls-13" x="95.21" y="354.81" width="39.61" height="9.05" rx="3.18"/><rect class="cls-14" x="174.44" y="354.81" width="39.61" height="9.05" rx="3.18"/><g class="cls-15"><rect class="cls-16" x="71.44" y="75.26" width="166.37" height="278.42" rx="14.63"/></g></g><g id="battery-charge-1" class="cls-17"><rect class="cls-18" x="91.82" y="86.58" width="127.89" height="255.78"/></g></g><text class="cls-19" transform="translate(0 52.5)">P<tspan class="cls-20" x="9.44" y="0">ack 1</tspan></text><line class="cls-21" x1="64.12" y1="47.62" x2="246.24" y2="47.62"/><g id="A1"><text class="cls-22" transform="translate(135.17 415.99)">0</text></g><g id="battery-group-2"><g id="battery-body-2"><rect class="cls-23" x="408.23" y="354.81" width="39.61" height="9.05" rx="3.18"/><rect class="cls-24" x="487.46" y="354.81" width="39.61" height="9.05" rx="3.18"/><g class="cls-15"><rect class="cls-25" x="384.46" y="75.26" width="166.37" height="278.42" rx="14.63"/></g></g><g id="battery-charge-2" class="cls-17"><rect class="cls-26" x="404.84" y="86.58" width="127.89" height="255.78"/></g></g><line class="cls-21" x1="377.14" y1="47.62" x2="559.26" y2="47.62"/><g id="V1"><text class="cls-27" transform="translate(123.79 31.83)">0</text></g><text class="cls-19" transform="translate(315.87 53.92)">P<tspan class="cls-20" x="9.44" y="0">ack 2</tspan></text><g id="V2"><text class="cls-27" transform="translate(439.65 33.25)">0</text></g><g id="OBC-group"><text id="obc-text" class="cls-9" transform="translate(141.79 722.86)">OBC</text><g id="obc-logo"><circle class="cls-28" cx="153.28" cy="585.69" r="99.6"/><path class="cls-29" d="M150,511.1v81.46H74.09S75.32,522.45,150,511.1Z"/><path class="cls-30" d="M155.66,590.09,156.74,510l75.73,1S230.31,579.94,155.66,590.09Z"/><text class="cls-31" transform="translate(90.24 610.29)">OBC</text></g></g><g id="bar1"><path class="cls-32" d="M217.15,390.18c2.33,0,4.67,0,7-.09,1.2-.07,1.47.3,1.44,1.45a72.52,72.52,0,0,1-6.86,29.38,76.16,76.16,0,0,1-5.5,9.71c-.56.85-.93,1.09-1.88.39q-5.82-4.27-11.75-8.38c-.9-.62-.79-1.05-.27-1.83a53.83,53.83,0,0,0,9.17-29c0-1.15.21-1.64,1.52-1.58,2.38.1,4.76,0,7.14,0Z"/><path class="cls-32" d="M88.75,391.3c2.38,0,4.76,0,7.14-.08.87,0,1.27.14,1.31,1.16A54.28,54.28,0,0,0,107,421.82c.54.78.34,1.09-.32,1.58q-6,4.34-11.84,8.77c-.75.57-1.06.37-1.54-.3A71.68,71.68,0,0,1,80.48,397.4c-.15-1.54-.17-3.1-.34-4.64-.11-1.05.16-1.46,1.31-1.43C83.88,391.4,86.31,391.32,88.75,391.3Z"/><path class="cls-32" d="M198.4,423.29a.85.85,0,0,1,.68.19c3.57,3.38,7.77,5.9,11.78,8.67.73.5.92.87.39,1.5A90,90,0,0,1,198,447a76.53,76.53,0,0,1-20.3,11.43c-1,.38-1.29.09-1.59-.83-1.49-4.56-3-9.11-4.58-13.65-.25-.77-.39-1.26.65-1.64A55.42,55.42,0,0,0,197,424.15C197.7,423.22,197.72,423.23,198.4,423.29Z"/><path class="cls-32" d="M154.05,462.79a74.88,74.88,0,0,1-21.22-2.74c-1.25-.34-1.31-.79-.83-2,1.27-3.32,2.23-6.75,3.32-10.14.34-1.08.77-2.15,1-3.25.22-.92.62-1.14,1.5-.88A54.91,54.91,0,0,0,157,445.65a51.54,51.54,0,0,0,11.68-2.11c1.07-.31,1.34,0,1.64.85q2.31,7,4.7,13.93c.29.85-.1,1-.81,1.27a68.8,68.8,0,0,1-13.62,2.81A49.8,49.8,0,0,1,154.05,462.79Z"/><path class="cls-32" d="M95,434a2.6,2.6,0,0,1,1-.95c3.71-2.74,7.44-5.43,11.08-8.24,1-.81,1.61-.82,2.43.26a51.09,51.09,0,0,0,10.72,10.25,52.59,52.59,0,0,0,14.1,7.38c1.12.38,1.05.77.76,1.64-1.28,3.93-2.51,7.88-3.75,11.82a5.71,5.71,0,0,0-.21.58c-.66,2.66-.65,2.65-3.24,1.69a73.42,73.42,0,0,1-32.11-23.28c-.22-.28-.44-.56-.65-.86A.91.91,0,0,1,95,434Z"/></g><g id="A2"><text class="cls-22" transform="translate(451.03 415.99)">0</text></g><g id="bar2"><path class="cls-32" d="M533,390.18c2.33,0,4.66,0,7-.09,1.2-.07,1.47.3,1.44,1.45a72.53,72.53,0,0,1-6.87,29.38,77.32,77.32,0,0,1-5.49,9.71c-.56.85-.94,1.09-1.89.39q-5.81-4.27-11.75-8.38c-.9-.62-.78-1.05-.27-1.83a53.84,53.84,0,0,0,9.18-29c0-1.15.21-1.64,1.52-1.58,2.37.1,4.76,0,7.14,0Z"/><path class="cls-32" d="M404.61,391.3c2.38,0,4.76,0,7.14-.08.88,0,1.28.14,1.31,1.16a54.21,54.21,0,0,0,9.82,29.44c.53.78.34,1.09-.33,1.58q-5.94,4.34-11.83,8.77c-.75.57-1.07.37-1.54-.3a71.68,71.68,0,0,1-12.83-34.47c-.15-1.54-.18-3.1-.34-4.64-.11-1.05.16-1.46,1.31-1.43C399.75,391.4,402.18,391.32,404.61,391.3Z"/><path class="cls-32" d="M514.27,423.29a.86.86,0,0,1,.68.19c3.56,3.38,7.76,5.9,11.78,8.67.73.5.92.87.39,1.5A90.11,90.11,0,0,1,513.88,447a76.53,76.53,0,0,1-20.3,11.43c-1,.38-1.29.09-1.59-.83-1.48-4.56-3-9.11-4.57-13.65-.26-.77-.4-1.26.64-1.64a55.42,55.42,0,0,0,24.77-18.2C513.57,423.22,513.59,423.23,514.27,423.29Z"/><path class="cls-32" d="M469.92,462.79a74.79,74.79,0,0,1-21.22-2.74c-1.25-.34-1.31-.79-.83-2,1.27-3.32,2.23-6.75,3.31-10.14.35-1.08.77-2.15,1-3.25.21-.92.62-1.14,1.5-.88a54.83,54.83,0,0,0,19.16,1.91,51.53,51.53,0,0,0,11.69-2.11c1.07-.31,1.34,0,1.63.85q2.32,7,4.7,13.93c.29.85-.1,1-.8,1.27a69,69,0,0,1-13.62,2.81A50,50,0,0,1,469.92,462.79Z"/><path class="cls-32" d="M410.85,434a2.63,2.63,0,0,1,1-.95c3.7-2.74,7.44-5.43,11.08-8.24,1-.81,1.6-.82,2.43.26a51.09,51.09,0,0,0,10.72,10.25,52.68,52.68,0,0,0,14.09,7.38c1.12.38,1.05.77.77,1.64-1.28,3.93-2.51,7.88-3.76,11.82-.06.19-.15.38-.2.58-.66,2.66-.66,2.65-3.24,1.69a73.3,73.3,0,0,1-32.11-23.28c-.23-.28-.45-.56-.66-.86A2,2,0,0,1,410.85,434Z"/></g><g id="draw-line"><text class="cls-33" transform="translate(292.26 396.39)">D<tspan class="cls-12" x="11.96" y="0">r</tspan><tspan class="cls-34" x="17.74" y="0">a</tspan><tspan x="26.25" y="0">w</tspan></text><line class="cls-21" x1="240.55" y1="391.12" x2="281.81" y2="391.12"/><line class="cls-21" x1="340.15" y1="391.12" x2="381.41" y2="391.12"/></g></g></g></svg>